<mxfile host="app.diagrams.net" modified="2023-06-01T04:39:29.556Z" agent="Mozilla/5.0 (Windows NT 10.0; Win64; x64) AppleWebKit/537.36 (KHTML, like Gecko) Chrome/115.0.0.0 Safari/537.36 Edg/115.0.0.0" version="21.3.6" etag="RUlmyfb4UCl0dmENIOS1" type="github">
  <diagram name="Page-1" id="NlF8WP0hre4RFLIRDRxA">
    <mxGraphModel>
      <root>
        <mxCell id="0" />
        <mxCell id="1" parent="0" />
      </root>
    </mxGraphModel>
  </diagram>
</mxfile>
